<?xml version="1.0" encoding="UTF-8"?>
<svg id="Capa_1" data-name="Capa 1" xmlns="http://www.w3.org/2000/svg" viewBox="0 0 1080 1080">
  <defs>
    <style>
      .cls-1 {
        fill: #ff7b19;
      }

      .cls-2 {
        fill: #fff;
      }

      .cls-3 {
        fill: none;
        stroke: #11a5f5;
        stroke-width: 16px;
      }

      .cls-3, .cls-4 {
        stroke-miterlimit: 10;
      }

      .cls-4 {
        fill: #eafc00;
        stroke: #fff;
        stroke-width: 3px;
      }
    </style>
  </defs>
  <ellipse class="cls-3" cx="534.44" cy="513.41" rx="284.9" ry="76.57" transform="translate(-206.5 528.28) rotate(-45)"/>
  <path class="cls-4" d="M465.2,697.24c69.47,61.48,175.08,58.35,241.56-8.13,67.36-67.36,75.12-173.43,11.11-242.83-72.98,115.43-176.88,205.46-252.67,250.96Z"/>
  <ellipse class="cls-3" cx="532.5" cy="511.47" rx="470.71" ry="154.84" transform="translate(-205.7 526.34) rotate(-45)"/>
  <ellipse class="cls-3" cx="540" cy="516.48" rx="645.9" ry="212.35" transform="translate(-207.04 533.11) rotate(-45)"/>
  <g>
    <path class="cls-1" d="M380.39,617.52c-11.63,0-22.56-4.53-30.78-12.75-16.97-16.97-16.97-44.58,0-61.55,8.22-8.22,19.15-12.75,30.78-12.75s22.56,4.53,30.78,12.75c8.22,8.22,12.75,19.15,12.75,30.78s-4.53,22.56-12.75,30.78c-8.22,8.22-19.15,12.75-30.78,12.75Z"/>
    <path class="cls-2" d="M380.39,528.97v3c11.22,0,21.78,4.37,29.71,12.31,7.94,7.94,12.31,18.49,12.31,29.72s-4.37,21.78-12.31,29.72c-7.94,7.94-18.49,12.31-29.72,12.31s-21.78-4.37-29.72-12.31-12.31-18.49-12.31-29.72,4.37-21.78,12.31-29.72c7.94-7.94,18.49-12.31,29.72-12.31v-3M380.39,528.97c-11.52,0-23.05,4.4-31.84,13.19-17.58,17.58-17.58,46.09,0,63.68,8.79,8.79,20.32,13.19,31.84,13.19s23.05-4.4,31.84-13.19c17.58-17.58,17.58-46.09,0-63.68-8.79-8.79-20.31-13.19-31.84-13.19h0Z"/>
  </g>
  <path class="cls-4" d="M685.61,418c-86.96-86.96-190.26-58.5-248.95.2-59.53,59.53-87.83,162.67-1.07,249.42,67.85-33.47,202.56-162.53,250.03-249.62Z"/>
  <g>
    <path class="cls-1" d="M856.39,262.21c-19.94,0-38.68-7.76-52.77-21.86-29.1-29.1-29.1-76.45,0-105.55,14.1-14.1,32.84-21.86,52.77-21.86s38.68,7.76,52.77,21.86c29.1,29.1,29.1,76.45,0,105.55-14.1,14.1-32.84,21.86-52.77,21.86Z"/>
    <path class="cls-2" d="M856.39,111.45v3c19.53,0,37.89,7.61,51.71,21.42,28.51,28.51,28.51,74.91,0,103.42-13.81,13.81-32.18,21.42-51.71,21.42s-37.9-7.61-51.71-21.42c-28.51-28.51-28.51-74.91,0-103.42,13.81-13.81,32.18-21.42,51.71-21.42v-3M856.39,111.45c-19.48,0-38.97,7.43-53.83,22.3-29.73,29.73-29.73,77.94,0,107.67,14.87,14.87,34.35,22.3,53.83,22.3s38.97-7.43,53.83-22.3c29.73-29.73,29.73-77.94,0-107.67-14.87-14.87-34.35-22.3-53.83-22.3h0Z"/>
  </g>
  <g>
    <path class="cls-1" d="M294.65,1042.92c-19.94,0-38.68-7.76-52.77-21.86-14.1-14.1-21.86-32.84-21.86-52.77s7.76-38.68,21.86-52.77c14.1-14.1,32.84-21.86,52.77-21.86s38.68,7.76,52.77,21.86c14.1,14.1,21.86,32.84,21.86,52.77s-7.76,38.68-21.86,52.77c-14.1,14.1-32.84,21.86-52.77,21.86Z"/>
    <path class="cls-2" d="M294.65,892.16v3c19.53,0,37.89,7.61,51.71,21.42,28.51,28.51,28.51,74.91,0,103.42-13.81,13.81-32.18,21.42-51.71,21.42s-37.9-7.61-51.71-21.42c-28.51-28.51-28.51-74.91,0-103.42,13.81-13.81,32.18-21.42,51.71-21.42v-3M294.65,892.16c-19.48,0-38.97,7.43-53.83,22.3-29.73,29.73-29.73,77.94,0,107.67,14.87,14.87,34.35,22.3,53.83,22.3s38.97-7.43,53.83-22.3c29.73-29.73,29.73-77.94,0-107.67-14.87-14.87-34.35-22.3-53.83-22.3h0Z"/>
  </g>
</svg>